<svg xmlns="http://www.w3.org/2000/svg" xmlns:xlink="http://www.w3.org/1999/xlink" version="1.1" width="1080" height="1080" viewBox="0 0 1080 1080" xml:space="preserve">
<desc>Created with Fabric.js 3.5.0</desc>
<defs>
</defs>
<rect x="0" y="0" width="100%" height="100%" fill="#ffffff"></rect>
<g transform="matrix(1.1278 0 0 1.1278 554.3403 539.984)" id="887316"  >
<g style="" vector-effect="non-scaling-stroke"   >
		<g transform="matrix(1.0333 0 0 1.0333 0.0688 0.2393)" id="path2985"  >
<path style="stroke: rgb(219,219,219); stroke-width: 4.839; stroke-dasharray: none; stroke-linecap: butt; stroke-dashoffset: 0; stroke-linejoin: miter; stroke-miterlimit: 4; is-custom-font: none; font-file-url: none; fill: rgb(51,51,51); fill-rule: nonzero; opacity: 1;"  transform=" translate(-428.855, -579.38)" d="m 779.86 579.38 a 351 351 0 1 1 -702.01 0 a 351 351 0 1 1 702.01 0 z" stroke-linecap="round" />
</g>
		<g transform="matrix(0.0301 0.9995 -0.9677 0.0311 0.0318 0.2714)" id="path3801"  >
<path style="stroke: rgb(102,102,102); stroke-width: 1.0163; stroke-dasharray: none; stroke-linecap: butt; stroke-dashoffset: 0; stroke-linejoin: miter; stroke-miterlimit: 4; is-custom-font: none; font-file-url: none; fill: none; fill-rule: nonzero; opacity: 1;"  transform=" translate(-435.2286, -401.3093)" d="m 435.33 402.73 c 20.443 -20.443 35.324 7.2981 25.504 25.504 c -11.894 22.05 -42.145 23.643 -60.829 9.8216 c -24.856 -18.386 -26.349 -54.939 -7.416 -78.067 c 22.743 -27.782 65.056 -29.098 91.671 -6.1879 c 30.502 26.256 31.678 73.658 5.4102 103.27 c -29.283 33.011 -81.257 34.08 -113.54 4.8616 c -35.34 -31.983 -36.324 -88.13 -4.4482 -122.85 c 34.441 -37.517 94.448 -38.432 131.42 -4.1225 c 39.566 36.713 40.424 100.32 3.8574 139.4 c -38.834 41.505 -105.83 42.316 -146.9 3.6362 c -43.349 -40.83 -44.119 -111.04 -3.4481 -153.98 c 42.722 -45.111 115.98 -45.845 160.72 -3.2856 c 46.799 44.522 47.502 120.7 3.1434 167.15 c -46.243 48.422 -125.21 49.098 -173.31 3.0176 c -49.987 -47.895 -50.637 -129.56 -2.9054 -179.23 c 49.484 -51.499 133.74 -52.127 184.94 -2.8044 c 52.962 51.018 53.57 137.78 2.713 190.46 c -52.501 54.382 -141.69 54.972 -195.8 2.6296 c -55.762 -53.938 -56.334 -145.48 -2.5532 -200.99 c 55.334 -57.104 149.17 -57.661 206.02 -2.483 c 58.412 56.69 58.954 152.75 2.418 210.92 c -58.011 59.687 -156.25 60.216 -215.7 2.3577 c -60.933 -59.298 -61.45 -159.65 -2.3015 -220.36 c 60.555 -62.151 162.98 -62.656 225.89 -2.3199 c 59.983 64.116 56.931 168.73 -5.2639 229.72 c -62.784 61.569 -164.91 58.601 -224.32 -6.0397 c -59.972 -65.248 -56.866 -171.58 6.3579 -233.57 c 63.813 -62.568 167.6 -59.548 227.98 6.1537 c 60.937 66.309 57.778 174.37 -6.4757 237.36 c -64.843 63.567 -170.3 60.495 -231.64 -6.2678 c -61.902 -67.37 -58.689 -177.15 6.5935 -241.14 c 65.872 -64.566 172.99 -61.442 235.3 6.3818 c 62.868 68.432 59.601 179.93 -6.7113 244.92 c -66.902 65.565 -175.69 62.39 -238.97 -6.4958 c -63.833 -69.493 -60.513 -182.71 6.8291 -248.7 c 67.931 -66.564 178.39 -63.337 242.63 6.6099 c 64.798 70.554 61.424 185.5 -6.9468 252.48 c -68.961 67.563 -181.08 64.284 -246.29 -6.7239 c -65.764 -71.615 -62.336 -188.28 7.0646 -256.27 c 69.99 -68.562 183.78 -65.231 249.95 6.838 c 66.729 72.676 63.248 191.06 -7.1824 260.05 c -71.02 69.561 -186.48 66.178 -253.61 -6.952 c -67.694 -73.738 -64.159 -193.85 7.3002 -263.83 c 72.049 -70.56 189.17 -67.125 257.28 7.0661 c 68.659 74.799 65.071 196.63 -7.418 267.61 c -73.078 71.559 -191.87 68.072 -260.94 -7.1801 c -69.625 -75.86 -65.983 -199.41 7.5358 -271.39 c 74.108 -72.558 194.57 -69.019 264.6 7.2942 c 70.59 76.921 66.894 202.2 -7.6536 275.18 c -75.137 73.557 -197.26 69.966 -268.26 -7.4082 c -71.555 -77.982 -67.806 -204.98 7.7714 -278.96 c 76.167 -74.556 199.96 -70.914 271.92 7.5222 c 72.52 79.044 68.718 207.76 -7.8892 282.74 c -77.196 75.555 -202.66 71.861 -275.59 -7.6363 c -73.486 -80.105 -69.629 -210.55 8.007 -286.52 c 78.226 -76.554 205.35 -72.808 279.25 7.7503 c 74.451 81.166 70.541 213.33 -8.1247 290.3 c -79.255 77.553 -208.05 73.755 -282.91 -7.8644 c -75.416 -82.227 -71.453 -216.11 8.2425 -294.09 c 80.285 -78.552 210.75 -74.702 286.57 7.9784 c 76.382 83.288 72.364 218.89 -8.3603 297.87 c -81.314 79.552 -213.44 75.649 -290.23 -8.0925 c -77.347 -84.35 -73.276 -221.68 8.4781 -301.65 c 82.344 -80.551 216.14 -76.596 293.89 8.2065 c 78.312 85.411 74.187 224.46 -8.5959 305.43 c -83.373 81.55 -218.84 77.543 -297.56 -8.3205 c -79.277 -86.472 -75.099 -227.24 8.7137 -309.22 c 84.403 -82.549 221.53 -78.491 301.22 8.4346 c 80.243 87.533 76.011 230.03 -8.8315 313 c -85.432 83.548 -224.23 79.438 -304.88 -8.5486 c -81.208 -88.594 -76.922 -232.81 8.9492 -316.78 c 86.462 -84.547 226.93 -80.385 308.54 8.6627 c 82.173 89.656 77.834 235.59 -9.067 320.56 c -87.491 85.546 -229.62 81.332 -312.2 -8.7767 c -83.138 -90.717 -78.746 -238.38 9.1848 -324.34 c 88.52 -86.545 232.32 -82.279 315.87 8.8908 c 84.104 91.778 79.657 241.16 -9.3026 328.13 c -89.55 87.544 -235.02 83.226 -319.53 -9.0048 c -85.069 -92.839 -80.569 -243.94 9.4204 -331.91 c 90.579 -88.543 237.71 -84.173 323.19 9.1188 c 86.034 93.9 81.481 246.72 -9.5382 335.69 c -91.609 89.542 -240.41 85.12 -326.85 -9.2329 c -87 -94.961 -82.392 -249.51 9.656 -339.47 c 92.638 -90.541 243.11 -86.067 330.51 9.3469 c 87.965 96.023 83.304 252.29 -9.7738 343.25 c -93.668 91.54 -245.8 87.015 -334.18 -9.461 c -88.93 -97.084 -84.216 -255.07 9.8915 -347.04 c 94.697 -92.539 248.5 -87.962 337.84 9.575 c 89.895 98.145 85.127 257.86 -10.009 350.82 c -95.727 93.538 -251.2 88.909 -341.5 -9.6891 c -90.861 -99.206 -86.039 -260.64 10.127 -354.6 c 96.756 -94.537 253.89 -89.856 345.16 9.8031 c 91.826 100.27 86.951 263.42 -10.245 358.38 c -97.786 95.536 -256.59 90.803 -348.82 -9.9172 c -92.791 -101.33 -87.862 -266.21 10.363 -362.16 c 98.815 -96.535 259.29 -91.75 352.48 10.031 c 93.757 102.39 88.774 268.99 -10.48 365.95 c -99.84 97.54 -261.98 92.71 -356.14 -10.13 c -94.72 -103.46 -89.69 -271.78 10.6 -369.73 c 100.87 -98.54 264.67 -93.65 359.8 10.26 c 95.69 104.51 90.6 274.55 -10.71 373.51 c -101.91 99.53 -267.38 94.59 -363.47 -10.38 c -96.65 -105.57 -91.51 -277.33 10.83 -377.29 c 102.93 -100.53 270.07 -95.54 367.13 10.49 c 97.62 106.63 92.42 280.12 -10.95 381.07 c -103.96 101.53 -272.77 96.49 -370.79 -10.6 c -98.59 -107.69 -93.33 -282.9 11.07 -384.86 c 104.99 -102.52 275.46 -97.43 374.45 10.72 c 99.55 108.76 94.25 285.69 -11.18 388.64 c -106.03 103.53 -278.17 98.38 -378.12 -10.83 c -100.52 -109.82 -95.16 -288.47 11.3 -392.42 c 107.05 -104.53 280.86 -99.329 381.78 10.94 c 101.48 110.88 96.07 291.25 -11.42 396.21 c -108.08 105.52 -283.55 100.27 -385.44 -11.06 c -102.45 -111.94 -96.98 -294.04 11.54 -399.99 c 109.11 -106.52 286.25 -101.22 389.1 11.17 c 103.41 113.01 97.89 296.82 -11.66 403.77 c -110.14 107.53 -288.94 102.17 -392.76 -11.28 c -104.38 -114.07 -98.8 -299.61 11.78 -407.55 c 111.16 -108.53 291.64 -103.12 396.42 11.4 c 105.34 115.12 99.72 302.38 -11.89 411.33 c -112.2 109.52 -294.34 104.06 -400.09 -11.52 c -106.31 -116.18 -100.63 -305.16 12.01 -415.11 c 113.23 -110.52 297.04 -105.01 403.75 11.63 c 107.27 117.24 101.54 307.95 -12.13 418.89 c -114.25 111.52 -299.73 105.96 -407.41 -11.74 c -108.24 -118.31 -102.45 -310.73 12.25 -422.68 c 115.28 -112.52 302.43 -106.9 411.07 11.86 c 109.2 119.37 103.36 313.52 -12.36 426.46 c -116.32 113.52 -305.13 107.85 -414.74 -11.97 c -110.17 -120.43 -104.27 -316.3 12.48 -430.24 c 117.35 -114.52 307.83 -108.8 418.4 12.08 c 111.13 121.49 105.18 319.09 -12.6 434.03 c -118.37 115.51 -310.52 109.74 -422.06 -12.2 c -112.1 -122.55 -106.1 -321.87 12.72 -437.81 c 119.4 -116.52 313.22 -110.69 425.72 12.31 c 113.06 123.62 107.01 324.65 -12.84 441.59 c -120.43 117.52 -315.91 111.64 -429.38 -12.42 c -114.03 -124.68 -107.92 -327.44 12.95 -445.37 c 121.47 -118.52 318.61 -112.59 433.05 12.54 c 114.99 125.73 108.83 330.21 -13.07 449.15 c -122.49 119.51 -321.31 113.53 -436.71 -12.66 c -115.96 -126.79 -109.74 -332.99 13.19 -452.93 c 123.52 -120.51 324 -114.48 440.37 12.77 c 116.92 127.86 110.65 335.78 -13.31 456.71 c -124.55 121.52 -326.7 115.43 -444.03 -12.88 c -117.89 -128.92 -111.56 -338.56 13.43 -460.5 c 125.58 -122.51 329.39 -116.37 447.69 13 c 118.85 129.98 112.48 341.35 -13.54 464.28 c -126.61 123.51 -332.1 117.32 -451.36 -13.11 c -119.82 -131.04 -113.39 -344.13 13.66 -468.06 c 127.64 -124.51 334.79 -118.27 455.02 13.22 c 120.78 132.1 114.3 346.92 -13.78 471.85 c -128.67 125.5 -337.48 119.21 -458.68 -13.34 c -121.75 -133.17 -115.21 -349.7 13.9 -475.63 c 129.7 -126.51 340.18 -120.16 462.34 13.45 c 122.71 134.23 116.12 352.48 -14.02 479.41 c -130.72 127.51 -342.87 121.11 -466 -13.56 c -123.68 -135.29 -117.03 -355.27 14.13 -483.2 c 131.76 -128.5 345.58 -122.05 469.67 13.69 c 124.64 136.34 117.95 358.04 -14.25 486.97 c -132.79 129.5 -348.27 123 -473.33 -13.8 c -125.61 -137.4 -118.86 -360.82 14.37 -490.75 c 133.82 -130.5 350.97 -123.95 476.99 13.91 c 126.57 138.47 119.77 363.61 -14.49 494.54 c -134.84 131.5 -353.66 124.89 -480.65 -14.03 c -127.54 -139.53 -120.68 -366.39 14.61 -498.32 c 135.87 -132.5 356.36 -125.84 484.31 14.14 c 128.5 140.59 121.59 369.18 -14.72 502.1 c -136.91 133.5 -359.06 126.8 -487.98 -14.25 c -129.47 -141.65 -122.5 -371.96 14.84 -505.88 c 137.94 -134.5 361.76 -127.74 491.64 14.36 c 130.43 142.72 123.41 374.75 -14.96 509.67 c -138.96 135.5 -364.45 128.69 -495.3 -14.48 c -131.4 -143.78 -124.32 -377.53 15.08 -513.45 c 139.99 -136.5 367.15 -129.64 498.96 14.59 c 132.36 144.84 125.24 380.31 -15.19 517.23 c -141.03 137.5 -369.85 130.59 -502.63 -14.7 c -133.33 -145.9 -126.15 -383.1 15.31 -521.02 c 142.06 -138.49 372.54 -131.53 506.29 14.82 c 134.3 146.96 127.06 385.88 -15.43 524.8 c -143.08 139.49 -375.24 132.48 -509.95 -14.94 c -135.26 -148.02 -127.97 -388.65 15.55 -528.57" stroke-linecap="round" />
</g>
		<g transform="matrix(1 0 0 1 -0.001 0.001)" id="path3791"  >
<radialGradient id="SVGID_35" gradientUnits="userSpaceOnUse" gradientTransform="matrix(1 0 0 0.9247 0 35.97)"  cx="370.4" cy="477.94" r="362.72" fx="370.4" fy="477.94">
<stop offset="0%" style="stop-color:rgb(255,255,255);stop-opacity: 0.1"/>
<stop offset="100%" style="stop-color:rgb(255,255,255);stop-opacity: 0"/>
</radialGradient>
<path style="stroke: none; stroke-width: 1; stroke-dasharray: none; stroke-linecap: butt; stroke-dashoffset: 0; stroke-linejoin: miter; stroke-miterlimit: 4; is-custom-font: none; font-file-url: none; fill: url(#SVGID_35); fill-rule: nonzero; opacity: 1;"  transform=" translate(-370.405, -477.945)" d="m 733.12 477.56 l -725.44 0.82 c 1.8902 136.58 71.96 268.63 224.62 334.99 l 276.1 -670.85 c 133.03 57.037 221.04 178.59 224.73 335.04 z" stroke-linecap="round" />
</g>
		<g transform="matrix(0.3657 0 0 0.3657 0.057 0.2175)" id="path3763"  >
<radialGradient id="SVGID_36" gradientUnits="userSpaceOnUse" gradientTransform="matrix(1 0 0 1 0 0)"  cx="428.86" cy="579.38" r="357.84" fx="428.86" fy="579.38">
<stop offset="0%" style="stop-color:rgb(200,190,117);stop-opacity: 1"/>
<stop offset="22.936%" style="stop-color:rgb(243,230,142);stop-opacity: 1"/>
<stop offset="76.14999999999999%" style="stop-color:rgb(244,231,143);stop-opacity: 1"/>
<stop offset="100%" style="stop-color:rgb(189,179,110);stop-opacity: 1"/>
</radialGradient>
<path style="stroke: rgb(255,255,255); stroke-width: 13.672; stroke-dasharray: none; stroke-linecap: butt; stroke-dashoffset: 0; stroke-linejoin: miter; stroke-miterlimit: 4; is-custom-font: none; font-file-url: none; fill: url(#SVGID_36); fill-rule: nonzero; opacity: 1;"  transform=" translate(-428.855, -579.38)" d="m 779.86 579.38 a 351 351 0 1 1 -702.01 0 a 351 351 0 1 1 702.01 0 z" stroke-linecap="round" />
</g>
		<g transform="matrix(0.0336 0 0 0.0336 0.0437 0.2083)" id="path3765"  >
<path style="stroke: rgb(255,255,255); stroke-width: 148.66; stroke-dasharray: none; stroke-linecap: butt; stroke-dashoffset: 0; stroke-linejoin: miter; stroke-miterlimit: 4; is-custom-font: none; font-file-url: none; fill: rgb(0,0,0); fill-rule: nonzero; opacity: 1;"  transform=" translate(-428.855, -579.38)" d="m 779.86 579.38 a 351 351 0 1 1 -702.01 0 a 351 351 0 1 1 702.01 0 z" stroke-linecap="round" />
</g>
		<g transform="matrix(1 0 0 1 4.9888 -6.8705)" style="" id="text3777"  >
		<text xml:space="preserve" font-family="Sans" font-size="40" font-style="normal" font-weight="normal" style="stroke: none; stroke-width: 1; stroke-dasharray: none; stroke-linecap: butt; stroke-dashoffset: 0; stroke-linejoin: miter; stroke-miterlimit: 4; is-custom-font: none; font-file-url: none; fill: rgb(0,0,0); fill-rule: nonzero; opacity: 1; white-space: pre;" ></text>
</g>
</g>
</g>
<g transform="matrix(1 0 0 1 554.3574 487.2782)" style="" id="997202"  >
		<text xml:space="preserve" font-family="Acme" font-size="69" font-style="normal" font-weight="normal" style="stroke: none; stroke-width: 1; stroke-dasharray: none; stroke-linecap: butt; stroke-dashoffset: 0; stroke-linejoin: miter; stroke-miterlimit: 4; is-custom-font: none; font-file-url: none; fill: rgb(0,0,0); fill-rule: nonzero; opacity: 1; white-space: pre;" ><tspan x="-102.396" y="21.6757" >TAVOR</tspan></text>
</g>
</svg>