<?xml version="1.0" standalone="no"?>
<!DOCTYPE svg PUBLIC "-//W3C//DTD SVG 20010904//EN"
 "http://www.w3.org/TR/2001/REC-SVG-20010904/DTD/svg10.dtd">
<svg version="1.0" xmlns="http://www.w3.org/2000/svg"
 width="192.000000pt" height="191.000000pt" viewBox="0 0 192.000000 191.000000"
 preserveAspectRatio="xMidYMid meet">
<metadata>
Created by potrace 1.10, written by Peter Selinger 2001-2011
</metadata>
<g transform="translate(0.000000,191.000000) scale(0.100000,-0.100000)"
fill="#000000" stroke="none">
<path d="M810 1774 c-127 -27 -246 -83 -365 -171 -137 -102 -235 -253 -287
-444 -31 -114 -31 -315 0 -432 73 -272 278 -491 545 -581 43 -15 101 -30 128
-33 55 -7 66 -22 17 -25 -18 0 -40 -2 -48 -2 -145 -12 -380 115 -545 292 -88
95 -112 131 -136 208 -41 131 -37 123 -38 89 -1 -34 29 -126 61 -189 30 -59
201 -226 291 -285 199 -129 308 -157 490 -127 182 30 296 63 402 115 173 87
303 214 390 383 58 111 85 214 92 353 7 129 -12 219 -72 357 -108 245 -345
440 -600 493 -90 18 -237 18 -325 -1z m405 -47 c147 -48 276 -142 389 -281
112 -137 164 -274 173 -451 8 -156 -32 -334 -100 -445 -41 -68 -139 -185 -187
-225 -165 -136 -410 -211 -608 -186 -153 19 -298 79 -413 171 -173 138 -270
321 -300 563 -13 110 0 222 42 353 77 241 304 448 565 514 118 30 327 24 439
-13z"/>
<path d="M870 1740 c-83 -11 -136 -28 -235 -75 -99 -47 -141 -74 -114 -75 9 0
24 9 34 20 10 11 24 20 31 20 7 0 42 14 78 30 72 34 143 52 226 57 208 15 320
-8 449 -94 141 -94 194 -144 283 -268 58 -82 83 -149 131 -360 3 -11 5 0 6 25
3 109 -80 309 -173 422 -186 224 -449 334 -716 298z"/>
<path d="M815 1555 c-106 -23 -254 -102 -311 -166 -27 -31 -75 -119 -105 -194
-21 -54 -24 -75 -23 -200 0 -161 10 -197 97 -341 62 -105 144 -182 247 -234
251 -126 473 -100 664 80 38 36 87 92 108 124 21 33 38 53 38 45 0 -18 -31
-70 -82 -136 -44 -57 -44 -76 -3 -95 21 -9 28 -9 34 0 6 9 15 10 40 1 17 -6
35 -9 38 -6 3 3 -6 9 -21 13 -24 6 -25 8 -11 27 22 32 19 56 -10 63 -14 3 -25
7 -25 9 0 10 53 95 60 95 11 0 63 81 56 87 -3 4 2 12 12 19 20 15 24 64 4 64
-7 0 -10 5 -7 10 8 13 16 12 39 -5 18 -13 17 -17 -18 -80 -21 -36 -34 -70 -31
-75 4 -6 -8 -33 -25 -61 -17 -28 -29 -53 -27 -56 8 -7 42 48 71 112 15 33 34
72 42 87 25 46 16 80 -23 92 -17 6 -30 0 -56 -26 -18 -18 -36 -41 -40 -51 -3
-9 -11 -17 -17 -17 -6 0 -8 -4 -5 -10 3 -5 2 -10 -3 -10 -13 0 -33 -50 -26
-63 4 -7 4 -9 -1 -5 -4 4 -15 2 -23 -5 -13 -10 -14 -9 -3 11 6 12 9 28 5 34
-4 7 -3 8 4 4 8 -5 10 -1 5 10 -4 12 -3 15 5 10 8 -5 10 -2 5 10 -5 15 -7 15
-15 0 -5 -9 -13 -14 -18 -11 -5 3 -6 -9 -3 -28 4 -24 0 -37 -13 -47 -16 -13
-17 -13 -12 2 4 10 1 19 -8 22 -20 8 -18 31 5 47 10 8 22 27 26 44 5 25 1 22
-29 -22 -19 -28 -38 -63 -42 -77 -5 -22 -4 -25 12 -19 14 5 16 3 11 -12 -6
-15 -5 -16 8 -5 8 7 15 9 15 5 0 -4 7 -2 15 5 11 9 15 9 15 1 0 -7 5 -9 13 -5
7 4 9 3 4 -2 -5 -5 -14 -9 -20 -9 -7 0 -12 -9 -12 -20 0 -13 -7 -20 -20 -20
-20 0 -115 -70 -114 -83 3 -18 -2 -35 -8 -29 -3 4 -12 -1 -20 -11 -10 -11 -12
-12 -8 -2 5 11 3 11 -7 -2 -9 -11 -19 -13 -29 -7 -11 5 -16 4 -16 -6 0 -8 5
-11 11 -8 7 4 7 1 0 -6 -9 -10 -17 -10 -32 -2 -30 16 -39 13 -16 -4 18 -15 18
-15 0 -8 -13 4 -17 3 -13 -4 5 -7 -1 -9 -15 -5 -13 3 -19 1 -15 -5 4 -6 -2
-11 -16 -11 -12 0 -65 -4 -117 -7 -68 -5 -91 -3 -80 4 12 9 9 11 -15 11 -42 1
-190 54 -188 68 2 7 -4 9 -14 5 -11 -4 -14 -3 -9 5 4 8 2 10 -7 6 -9 -3 -30
10 -53 33 -20 21 -34 32 -29 24 5 -9 4 -12 -3 -8 -5 4 -9 15 -7 25 3 18 -23
54 -35 47 -13 -8 -68 59 -105 127 -47 87 -66 166 -58 249 3 35 6 96 7 136 0
39 4 69 9 66 4 -2 7 1 7 8 0 6 15 44 34 83 83 170 266 279 471 277 103 0 216
-26 297 -67 81 -41 197 -163 243 -256 21 -43 35 -84 31 -93 -4 -10 -2 -14 5
-9 8 4 9 -1 4 -16 -5 -16 -4 -20 5 -15 8 5 9 -3 4 -30 -4 -24 -3 -36 3 -32 11
7 12 -132 0 -150 -4 -6 -1 -14 5 -16 8 -3 9 -6 2 -6 -13 -1 -6 -51 7 -51 14 0
29 71 29 136 0 83 -27 208 -57 269 -57 113 -160 232 -238 273 -48 25 -184 70
-249 81 -76 14 -136 13 -211 -4z m780 -834 c3 -6 -4 -15 -15 -21 -11 -6 -20
-18 -20 -27 0 -13 -3 -14 -12 -5 -9 9 -9 18 0 37 12 25 36 33 47 16z m-223
-199 c-23 -22 -44 -37 -47 -34 -6 6 77 82 84 76 2 -2 -15 -21 -37 -42z m143
-22 c0 -18 -6 -26 -23 -28 -13 -2 -25 3 -28 12 -10 26 4 48 28 44 17 -2 23
-10 23 -28z"/>
<path d="M919 1475 c-2 -2 -24 -4 -49 -6 -104 -6 -249 -78 -305 -151 -80 -104
-109 -164 -126 -262 -13 -79 -7 -172 15 -231 l16 -40 -6 40 -5 40 21 -45 c18
-40 20 -41 16 -13 -5 30 -4 32 27 30 18 -1 35 -6 39 -12 4 -5 10 -1 14 9 6 17
8 16 20 -5 l13 -24 1 24 c0 24 0 24 15 5 11 -14 14 -15 15 -4 0 8 14 -10 31
-40 42 -76 73 -106 155 -147 60 -29 84 -35 150 -38 64 -2 69 -1 29 5 -44 6
-46 7 -14 8 55 3 139 31 184 62 38 27 100 94 100 109 0 3 10 17 23 31 20 22
22 22 22 4 1 -18 1 -18 11 0 9 14 13 15 19 6 5 -8 13 -9 21 -4 23 14 44 10 50
-11 5 -16 9 -11 19 24 8 24 16 39 18 33 2 -6 10 -8 18 -5 10 3 14 20 13 52 -1
41 -2 43 -9 16 -7 -27 -8 -26 -9 16 -2 104 -54 247 -111 307 -11 12 -18 22
-15 22 2 0 -3 9 -12 20 -10 11 -22 20 -29 20 -6 0 -19 10 -30 21 -39 44 -137
101 -193 114 -62 14 -157 26 -162 20z m169 -44 c116 -46 243 -153 294 -248 35
-64 58 -160 58 -245 l0 -68 -485 0 -485 0 0 90 c0 244 138 429 363 486 71 18
189 11 255 -15z m-336 -657 c21 -23 35 -43 32 -46 -3 -4 1 -6 8 -5 7 1 35 -9
61 -22 69 -32 142 -38 211 -16 66 21 138 80 167 136 16 33 39 52 39 34 0 -22
-48 -90 -90 -128 -96 -87 -254 -112 -347 -57 -55 33 -112 89 -134 132 -23 46
-24 72 -1 38 9 -14 34 -43 54 -66z m173 76 c19 -8 18 -9 -4 -9 -19 -1 -21 -4
-12 -15 8 -10 9 -16 1 -21 -5 -3 -10 -13 -10 -21 0 -21 19 -7 31 23 7 20 11
22 23 11 58 -57 78 -62 103 -29 7 9 13 12 13 6 0 -5 7 1 16 13 11 16 25 22 55
22 41 0 52 -17 24 -40 -8 -6 -13 -17 -12 -22 4 -19 -77 -68 -118 -73 l-40 -5
42 14 c39 12 113 53 113 61 0 2 -26 -8 -57 -23 -41 -19 -75 -26 -115 -26 -46
-1 -53 -3 -35 -10 21 -10 21 -10 -6 -14 -50 -6 -170 67 -199 122 -11 21 -11
21 11 2 16 -15 20 -16 16 -5 -5 13 3 16 39 17 50 2 54 -2 58 -46 2 -25 9 -34
30 -41 18 -7 26 -7 23 -1 -4 6 -12 10 -20 10 -9 0 -14 17 -17 51 -4 64 1 69
47 49z m133 -16 c6 -43 -50 -55 -63 -13 -9 27 3 41 33 37 18 -2 28 -10 30 -24z"/>
<path d="M787 1360 c-5 -18 0 -20 59 -20 l64 0 2 -185 3 -185 28 26 29 26 -4
159 -3 159 57 0 c47 0 59 4 68 20 10 20 8 20 -143 20 -146 0 -155 -1 -160 -20z"/>
<path d="M795 771 c25 -29 92 -64 100 -52 3 5 -8 12 -25 16 -17 4 -45 19 -63
33 -28 23 -29 23 -12 3z"/>
<path d="M1010 836 c0 -10 9 -16 21 -16 24 0 21 23 -4 28 -10 2 -17 -3 -17
-12z"/>
<path d="M271 774 c-1 -15 30 -106 35 -101 2 2 -5 28 -15 58 -11 30 -20 49
-20 43z"/>
<path d="M1280 588 c-14 -12 -56 -35 -95 -53 -135 -62 -124 -56 -90 -50 58 12
228 106 214 119 -2 3 -15 -5 -29 -16z"/>
<path d="M1326 589 c-8 -12 -29 -30 -46 -41 -18 -10 -30 -22 -26 -25 6 -7 76
38 76 49 0 4 7 14 16 22 8 9 11 16 5 16 -5 0 -17 -10 -25 -21z"/>
<path d="M360 554 c0 -11 76 -107 107 -134 25 -22 25 -21 -3 10 -17 19 -48 57
-68 83 -20 27 -36 45 -36 41z"/>
<path d="M1178 455 c-15 -9 -51 -22 -80 -30 -43 -12 -46 -15 -15 -11 35 4 154
54 132 55 -5 0 -22 -6 -37 -14z"/>
<path d="M789 434 c18 -8 47 -17 65 -20 17 -2 4 4 -29 16 -70 23 -84 25 -36 4z"/>
<path d="M835 441 c31 -12 99 -21 89 -12 -5 5 -31 11 -59 14 -29 3 -41 2 -30
-2z"/>
<path d="M1375 429 c-11 -16 0 -21 30 -13 20 5 23 9 13 15 -18 12 -36 11 -43
-2z"/>
<path d="M928 403 c23 -2 59 -2 80 0 20 2 1 4 -43 4 -44 0 -61 -2 -37 -4z"/>
<path d="M540 359 c27 -18 165 -86 190 -94 14 -4 -24 18 -85 49 -106 54 -136
67 -105 45z"/>
<path d="M100 1123 c-1 -5 -5 -27 -9 -50 -5 -24 -5 -43 -1 -43 4 0 12 23 17
50 6 28 6 50 2 50 -5 0 -9 -3 -9 -7z"/>
<path d="M76 1004 c-21 -56 -17 -264 5 -264 6 0 7 9 4 21 -10 29 -10 163 0
217 7 42 2 56 -9 26z"/>
</g>
</svg>
